<svg width="600" height="600" viewBox="0 0 600 600" fill="none" xmlns="http://www.w3.org/2000/svg" role="img" aria-label="Northern Light album cover">
  <rect width="600" height="600" fill="#0d0d0f"/>

  <!-- concentric arcs: the aurora / northern light motif, flat color, no gradients -->
  <g stroke-linecap="round" fill="none">
    <circle cx="300" cy="300" r="232" stroke="#1c1c22" stroke-width="2"/>
    <circle cx="300" cy="300" r="190" stroke="#23232b" stroke-width="2"/>

    <path d="M 86 300 A 214 214 0 0 1 514 300" stroke="#4f46e5" stroke-width="10"/>
    <path d="M 116 300 A 184 184 0 0 1 484 300" stroke="#6f67ee" stroke-width="7" opacity="0.9"/>
    <path d="M 146 300 A 154 154 0 0 1 454 300" stroke="#9a94f4" stroke-width="5" opacity="0.8"/>
    <path d="M 176 300 A 124 124 0 0 1 424 300" stroke="#c4c0f9" stroke-width="3.5" opacity="0.7"/>
  </g>

  <!-- horizon line -->
  <line x1="86" y1="300" x2="514" y2="300" stroke="#2b2b33" stroke-width="2"/>

  <!-- small star -->
  <circle cx="300" cy="158" r="4" fill="#ffffff"/>
  <circle cx="392" cy="196" r="2.5" fill="#ffffff" opacity="0.7"/>
  <circle cx="214" cy="208" r="2" fill="#ffffff" opacity="0.55"/>

  <!-- type -->
  <text x="300" y="430" text-anchor="middle" font-family="Inter, sans-serif" font-size="42" font-weight="800" letter-spacing="-1" fill="#ffffff">Northern Light</text>
  <text x="300" y="466" text-anchor="middle" font-family="Inter, sans-serif" font-size="17" font-weight="500" letter-spacing="4" fill="#8a8a90">Samyra, Anaya, Avani, Charlotte, and Sidd</text>
</svg>
