<svg xmlns="http://www.w3.org/2000/svg" width="600" height="600" fill="none" aria-label="Northern Light album cover" role="img" viewBox="0 0 600 600"><rect width="600" height="600" fill="#0d0d0f"/><g fill="none" stroke-linecap="round"><circle cx="300" cy="300" r="232" stroke="#1c1c22" stroke-width="2"/><circle cx="300" cy="300" r="190" stroke="#23232b" stroke-width="2"/><path stroke="#4f46e5" stroke-width="10" d="M 86 300 A 214 214 0 0 1 514 300"/><path stroke="#6f67ee" stroke-width="7" d="M 116 300 A 184 184 0 0 1 484 300" opacity=".9"/><path stroke="#9a94f4" stroke-width="5" d="M 146 300 A 154 154 0 0 1 454 300" opacity=".8"/><path stroke="#c4c0f9" stroke-width="3.5" d="M 176 300 A 124 124 0 0 1 424 300" opacity=".7"/></g><line x1="86" x2="514" y1="300" y2="300" stroke="#2b2b33" stroke-width="2"/><circle cx="300" cy="158" r="4" fill="#fff"/><circle cx="392" cy="196" r="2.5" fill="#fff" opacity=".7"/><circle cx="214" cy="208" r="2" fill="#fff" opacity=".55"/><text x="300" y="430" fill="#fff" font-family="Inter, sans-serif" font-size="42" font-weight="800" letter-spacing="-1" text-anchor="middle">Northern Light</text><text x="300" y="466" fill="#8a8a90" font-family="Inter, sans-serif" font-size="17" font-weight="500" letter-spacing="4" text-anchor="middle">MIRA VALE</text></svg>